<?xml version="1.0" encoding="utf-8"?>
<svg viewBox="0 0 750 100" width="800px" height="100px" xmlns="http://www.w3.org/2000/svg" xmlns:bx="https://boxy-svg.com">
  <defs>
    <radialGradient gradientUnits="userSpaceOnUse" cx="180" cy="180" r="180" id="gradient-0" spreadMethod="pad">
      <stop offset="0" style="stop-color: rgb(21, 0, 255);"/>
      <stop offset="1" style="stop-color: rgb(10, 0, 120);"/>
    </radialGradient>
    <linearGradient gradientUnits="userSpaceOnUse" x1="423.992" y1="4.016" x2="423.992" y2="96.594" id="gradient-2" gradientTransform="matrix(0.106419, 0.994322, -6.991322, 0.748255, 739.892323, -438.552312)">
      <stop offset="0" style="stop-color: rgb(0, 128, 255);"/>
      <stop offset="1" style="stop-color: rgb(0, 13, 255);"/>
    </linearGradient>
    <filter id="point-light-filter-0" primitiveUnits="objectBoundingBox" x="-500%" y="-500%" width="1000%" height="1000%" bx:preset="point-light 1 0.5 0.5 0.5 74 1.61 1.44 0 #ffffff">
      <feSpecularLighting result="specular-lighting" lighting-color="#ffffff" specularConstant="1.61" specularExponent="74">
        <fePointLight x="0.5" y="0.5" z="0.5"/>
      </feSpecularLighting>
      <feDiffuseLighting result="diffuse-lighting" lighting-color="#ffffff" diffuseConstant="1.44">
        <fePointLight x="0.5" y="0.5" z="0.5"/>
      </feDiffuseLighting>
      <feMerge result="lighting">
        <feMergeNode in="diffuse-lighting"/>
        <feMergeNode in="specular-lighting"/>
      </feMerge>
      <feComposite in="SourceGraphic" in2="lighting" operator="arithmetic" k1="1" k2="0" k3="0" k4="0"/>
    </filter>
    <linearGradient gradientUnits="userSpaceOnUse" x1="180" y1="0" x2="180" y2="360" id="gradient-1">
      <stop offset="0" style="stop-color: rgb(9, 0, 188);"/>
      <stop offset="1" style="stop-color: rgb(4, 0, 78);"/>
    </linearGradient>
  </defs>
  <g transform="matrix(0.243822, 0, 0, 0.243822, 17.567066, 6.103618)" style="">
    <path d="m360 180c0 99.41-80.59 180-180 180s-180-80.59-180-180 80.59-180 180-180 180 80.59 180 180z" style="fill: url(#gradient-0); fill-rule: nonzero; stroke-width: 16.4054px; stroke: url(#gradient-1);"/>
    <path d="M 79.367 175.61 C 78.7 175.61 78.059 175.383 77.535 174.953 C 76.918 174.453 76.543 173.738 76.473 172.946 L 75.598 161.922 C 75.563 161.426 75.325 160.957 74.95 160.637 L 69.227 155.754 C 68.203 154.883 67.688 153.567 67.848 152.235 L 68.813 144.098 L 67.66 144.84 C 67.27 145.09 67.016 145.5 66.957 145.957 L 66.367 150.778 C 66.192 152.188 64.903 153.203 63.489 153.035 C 62.801 152.957 62.18 152.61 61.75 152.063 C 61.321 151.516 61.133 150.836 61.215 150.145 L 62.047 143.36 C 62.184 142.258 62.805 141.301 63.75 140.727 L 68.973 137.567 C 70.059 136.91 71.352 136.649 72.61 136.832 L 74.789 137.149 C 75.993 137.324 76.821 138.403 76.676 139.61 L 75.239 151.754 C 75.192 152.153 75.344 152.547 75.653 152.809 L 80.25 156.731 C 80.934 157.317 81.364 158.168 81.43 159.067 L 82.485 172.434 C 82.614 174.004 81.489 175.383 79.922 175.567 L 79.715 175.59 C 79.598 175.602 79.481 175.61 79.367 175.61 Z M 79.86 175.024 L 79.864 175.024 Z" style="fill: rgb(255, 255, 255);"/>
    <path d="M 83.953 151.61 L 83.871 151.61 C 83.176 151.587 82.532 151.294 82.055 150.786 L 75.321 143.478 C 75.207 143.357 75.961 138.107 75.985 137.943 L 78.11 140.259 C 78.11 140.259 75.067 137.349 75.266 137.286 C 75.465 137.224 78.907 139.814 79.047 139.966 L 85.848 147.243 C 86.817 148.282 86.766 149.923 85.731 150.903 C 85.246 151.36 84.617 151.61 83.953 151.61 Z" style="fill: rgb(255, 255, 255);"/>
    <path d="M 75.985 137.95 C 73.305 137.95 71.121 135.766 71.121 133.086 C 71.121 130.403 73.305 128.223 75.985 128.223 C 78.668 128.223 80.848 130.403 80.848 133.086 C 80.848 135.766 78.668 137.95 75.985 137.95 Z" style="fill: rgb(255, 255, 255);"/>
    <path d="M 67.008 175.61 C 66.821 175.61 66.633 175.594 66.446 175.555 C 64.895 175.254 63.86 173.746 64.133 172.192 L 66.86 156.793 C 66.891 156.602 67.852 150.953 68.035 150.887 C 68.219 150.82 73.301 152.156 73.45 152.278 C 72.258 156.168 71.496 159.332 72.825 154.613 L 69.867 173.203 C 69.731 173.977 69.301 174.649 68.649 175.098 C 68.16 175.434 67.59 175.61 67.008 175.61 Z" style="fill: rgb(255, 255, 255);"/>
    <path d="m190.13 216.55c-5.668 0-10.277-4.613-10.277-10.277 0-5.668 4.609-10.278 10.277-10.278 5.664 0 10.277 4.61 10.277 10.278s-4.609 10.277-10.277 10.277z" stroke-miterlimit="10" stroke-width="1.1566" style="fill: rgb(255, 255, 255); stroke: rgb(255, 255, 255);"/>
    <path d="m183.06 213.42-1.414 5.266h17.82l-1.668-6.227z" stroke-miterlimit="10" stroke-width="1.4173" style="fill: rgb(255, 255, 255); stroke: rgb(255, 255, 255);"/>
    <path d="m285.52 270.87c0 10.578-8.578 19.152-19.156 19.152-10.574 0-19.152-8.574-19.152-19.152s8.578-19.152 19.152-19.152c10.578 0 19.156 8.574 19.156 19.152z" style="fill: rgb(255, 255, 255);"/>
    <path d="m118.02 270.87c0 10.578-8.575 19.152-19.153 19.152s-19.152-8.574-19.152-19.152 8.574-19.152 19.152-19.152 19.153 8.574 19.153 19.152z" style="fill: rgb(255, 255, 255);"/>
    <path d="M 321.15 259.02 L 319.721 250.527 C 317.346 236.43 306.826 225.203 292.912 221.926 L 265.963 215.574 L 234.928 197.871 C 219.818 189.246 202.631 184.691 185.232 184.691 L 149.244 184.691 C 132.029 184.691 115.002 189.156 100.01 197.605 L 79.475 209.176 L 64.627 209.176 C 55.08 209.176 47.01 216.324 45.857 225.801 L 42.861 250.391 C 41.611 260.656 48.647 269.879 58.881 271.383 L 73.662 273.562 C 73.662 273.578 73.514 271.793 73.514 270.867 C 73.514 256.895 84.881 245.523 98.857 245.523 C 112.838 245.523 124.205 256.895 124.205 270.867 C 124.205 271.918 124.119 272.949 123.994 273.965 L 241.234 273.965 C 241.113 272.949 241.023 271.918 241.023 270.867 C 241.023 256.895 252.395 245.523 266.367 245.523 C 280.344 245.523 291.711 256.895 291.711 270.867 C 291.711 271.918 291.629 272.949 291.504 273.965 L 308.512 273.965 C 312.289 273.965 315.855 272.309 318.297 269.422 C 320.734 266.535 321.773 262.746 321.148 259.02 L 321.15 259.02 Z M 243.389 216.125 C 243.049 217.508 241.807 218.484 240.381 218.484 L 95.631 218.484 C 94.221 218.484 92.986 217.527 92.635 216.16 C 92.279 214.793 92.897 213.363 94.131 212.68 L 101.768 208.461 C 101.795 208.445 101.818 208.43 101.846 208.414 L 117.631 200.281 C 128.865 194.488 141.615 191.43 154.502 191.43 L 181.244 191.43 C 194.272 191.43 207.143 194.555 218.467 200.461 L 241.811 212.641 C 243.076 213.301 243.725 214.742 243.389 216.125 L 243.389 216.125 Z" stroke-miterlimit="10" stroke-width="3.0956" style="fill: rgb(255, 255, 255); paint-order: stroke; stroke: rgb(255, 255, 255);"/>
    <g transform="matrix(1, -1, -1, -1, -4.239063, -11.460766)" stroke="#0000d4">
      <path d="m14.971-167.46c-.002 3.303-2.776 5.979-6.201 5.979-3.426 0-6.204-2.676-6.202-5.979 0-3.301 2.776-5.978 6.2-5.976 3.425 0 6.203 2.675 6.203 5.976z" fill-rule="evenodd" style="stroke: rgb(255, 255, 255); fill: rgb(255, 255, 255);" stroke-width="6.5978"/>
      <path d="m35.305-167.46c0 14.125-11.881 25.58-26.535 25.578" stroke-linecap="round" style="stroke: rgb(255, 255, 255);" stroke-width="9.7149" fill="none"/>
      <path d="m52.832-167.46c0 23.457-19.728 42.475-44.064 42.475" stroke-linecap="round" style="stroke: rgb(255, 255, 255);" stroke-width="9.7149" fill="none"/>
      <path d="m71.787-167.46c0 33.551-28.213 60.748-63.017 60.748" stroke-linecap="round" style="stroke: rgb(255, 255, 255);" stroke-width="9.7149" fill="none"/>
    </g>
    <g transform="matrix(0.190964, -0.190964, -0.190964, -0.190964, 40.515144, 83.476089)" stroke="#0000d4" style="">
      <path d="m14.971-167.46c-.002 3.303-2.776 5.979-6.201 5.979-3.426 0-6.204-2.676-6.202-5.979 0-3.301 2.776-5.978 6.2-5.976 3.425 0 6.203 2.675 6.203 5.976z" fill-rule="evenodd" style="stroke: rgb(255, 255, 255); fill: rgb(255, 255, 255);" stroke-width="6.5978"/>
      <path d="m35.305-167.46c0 14.125-11.881 25.58-26.535 25.578" stroke-linecap="round" style="stroke: rgb(255, 255, 255);" stroke-width="9.7149" fill="none"/>
      <path d="m52.832-167.46c0 23.457-19.728 42.475-44.064 42.475" stroke-linecap="round" style="stroke: rgb(255, 255, 255);" stroke-width="9.7149" fill="none"/>
      <path d="m71.787-167.46c0 33.551-28.213 60.748-63.017 60.748" stroke-linecap="round" style="stroke: rgb(255, 255, 255);" stroke-width="9.7149" fill="none"/>
    </g>
    <g transform="matrix(0.161565, -0.161565, -0.161565, -0.161565, 253.398056, 88.751251)" stroke="#0000d4" style="">
      <path d="m14.971-167.46c-.002 3.303-2.776 5.979-6.201 5.979-3.426 0-6.204-2.676-6.202-5.979 0-3.301 2.776-5.978 6.2-5.976 3.425 0 6.203 2.675 6.203 5.976z" fill-rule="evenodd" style="stroke: rgb(255, 255, 255); fill: rgb(255, 255, 255);" stroke-width="6.5978"/>
      <path d="m35.305-167.46c0 14.125-11.881 25.58-26.535 25.578" stroke-linecap="round" style="stroke: rgb(255, 255, 255);" stroke-width="9.7149" fill="none"/>
      <path d="m52.832-167.46c0 23.457-19.728 42.475-44.064 42.475" stroke-linecap="round" style="stroke: rgb(255, 255, 255);" stroke-width="9.7149" fill="none"/>
      <path d="m71.787-167.46c0 33.551-28.213 60.748-63.017 60.748" stroke-linecap="round" style="stroke: rgb(255, 255, 255);" stroke-width="9.7149" fill="none"/>
    </g>
  </g>
  <desc>Created with Fabric.js 1.7.22</desc>
  <g transform="matrix(0.03381, 0, 0, 0.03381, 85.552055, 42.546299)" style="">
    <g style="stroke: none; stroke-width: 0; stroke-dasharray: none; stroke-linecap: butt; stroke-linejoin: miter; stroke-miterlimit: 10; fill: none; fill-rule: nonzero; opacity: 1;" transform="translate(-175.05 -175.05000000000004) scale(3.89 3.89)">
      <path d="M 85.214 72.48 L 86.77 71.69 C 87.263 71.44 87.459 70.838 87.209 70.346 C 85.595 67.164 82.838 64.802 79.446 63.694 C 77.741 63.136 75.978 62.932 74.241 63.07 C 73.909 56.747 70.83 53.078 68.326 50.101 C 67.015 48.544 65.3 45.096 65.37 44.992 C 65.441 44.886 65.649 44.639 66.032 44.639 L 68.822 44.639 C 71.654 44.639 73.959 42.334 73.959 39.502 C 73.959 36.67 71.654 34.365 68.822 34.365 L 64.096 34.365 L 49.416 22.27 C 48.294 21.346 47.827 20.025 47.633 19.08 C 47.604 18.939 47.558 18.806 47.519 18.67 C 48.444 18.969 49.429 19.135 50.453 19.135 C 51.006 19.135 51.453 18.687 51.453 18.135 L 51.453 16.724 C 54.641 16.28 57.164 13.756 57.608 10.569 L 59.019 10.569 C 59.572 10.569 60.019 10.121 60.019 9.569 C 60.019 4.292 55.728 0 50.452 0 C 45.177 0 40.886 4.292 40.886 9.566 C 40.886 11.473 41.453 13.248 42.419 14.741 C 41.422 14.716 40.433 14.947 39.547 15.464 C 38.262 16.213 37.358 17.421 36.989 18.919 L 32.561 42.379 C 32.16 44.502 32.721 46.672 34.099 48.336 C 34.28 48.555 34.474 48.76 34.677 48.953 L 29.296 48.953 C 29.73 48.278 29.989 47.481 29.989 46.621 L 29.989 28.816 C 29.989 26.427 28.046 24.484 25.657 24.484 L 6.652 24.484 C 4.264 24.484 2.32 26.427 2.32 28.816 L 2.32 46.621 C 2.32 49.01 4.263 50.953 6.652 50.953 L 11.052 50.953 C 10.916 51.303 10.834 51.68 10.834 52.077 L 10.834 52.631 C 10.834 56.492 13.975 59.633 17.835 59.633 L 20.901 59.633 C 17.759 62.822 15.834 66.032 15.499 73.651 C 15.446 74.848 15.874 75.985 16.702 76.851 C 17.529 77.715 18.643 78.192 19.839 78.192 L 20.327 78.192 C 20.284 78.582 20.26 78.974 20.26 79.368 C 20.262 85.23 25.032 90 30.895 90 C 36.758 90 41.528 85.23 41.528 79.367 C 41.528 78.974 41.505 78.581 41.462 78.191 L 62.078 78.191 C 62.273 79.632 62.694 81.066 63.388 82.434 C 63.508 82.671 63.717 82.85 63.969 82.932 C 64.071 82.965 64.175 82.982 64.28 82.982 C 64.436 82.982 64.591 82.946 64.732 82.874 L 66.608 81.922 C 67.788 86.61 72.017 90 76.976 90 C 82.878 90 87.68 85.198 87.68 79.296 C 87.68 76.8 86.788 74.387 85.214 72.48 Z M 58.646 36.263 L 61.211 34.58 C 60.188 34.87 59.303 35.462 58.646 36.263 Z M 56.817 68.467 C 56.058 67.157 54.823 66.205 53.124 65.626 L 53.33 46.03 C 53.357 43.43 51.345 41.308 48.766 41.198 L 45.18 40.981 L 46.856 33.388 C 46.915 33.122 47.09 32.904 47.338 32.791 C 47.585 32.678 47.864 32.687 48.105 32.817 L 57.705 38.025 C 57.563 38.495 57.463 38.984 57.463 39.5 L 57.463 66.526 C 57.463 67.255 57.218 67.922 56.817 68.467 Z M 42.193 58.647 C 42.193 58.642 42.196 58.638 42.196 58.633 L 42.196 52.077 C 42.196 51.68 42.114 51.303 41.978 50.953 L 43.606 50.953 C 44.503 50.953 45.245 51.627 45.326 52.439 L 45.598 69.678 C 44.284 69.336 43.195 68.364 42.798 67.067 C 42.265 65.331 42.079 62.738 42.196 58.661 C 42.196 58.656 42.193 58.652 42.193 58.647 Z M 34.306 78.191 C 34.418 78.542 34.495 78.901 34.495 79.278 C 34.495 81.262 32.88 82.878 30.895 82.878 C 28.91 82.878 27.295 81.263 27.295 79.278 C 27.295 78.901 27.372 78.541 27.484 78.191 L 34.306 78.191 Z M 80.827 79.721 C 80.827 81.705 79.212 83.321 77.227 83.321 C 75.242 83.321 73.627 81.706 73.627 79.721 C 73.627 79.184 73.753 78.659 73.981 78.18 L 77.889 76.197 C 79.578 76.511 80.827 77.973 80.827 79.721 Z" style="stroke-width: 1; stroke-dasharray: none; stroke-linecap: butt; stroke-linejoin: miter; stroke-miterlimit: 10; fill-rule: nonzero; opacity: 1; fill: rgb(255, 255, 255);" transform=" matrix(1 0 0 1 0 0) " stroke-linecap="round"/>
    </g>
  </g>
  <text style="fill: rgb(51, 51, 51); font-family: Impact; font-size: 76px; letter-spacing: 3.5px; paint-order: fill; stroke: url(#gradient-2); stroke-linecap: round; stroke-linejoin: round; stroke-miterlimit: 27; stroke-width: 3px; white-space: pre; filter: url(#point-light-filter-0);" x="125.115" y="80.607">Schultz Rastreios</text>
  <text style="white-space: pre; fill: rgb(51, 51, 51); font-family: Arial, sans-serif; font-size: 22.1px;" x="357.591" y="52.759"> </text>
</svg>